<svg xmlns="http://www.w3.org/2000/svg" width="12.548" height="12.341" viewBox="0 0 12.548 12.341"><g transform="translate(-0.866 0)" opacity="0.204"><path d="M2.713,0H.2A.2.2,0,0,0,0,.2V8.155A.2.2,0,0,0,.056,8.3.2.2,0,0,0,.2,8.363H2.713A.2.2,0,0,0,2.858,8.3a.2.2,0,0,0,.056-.147V.2A.2.2,0,0,0,2.713,0Z" transform="translate(1.076 3.978)" fill="#fff"/><path d="M1.671,0A1.663,1.663,0,0,0,.128,1.013a1.635,1.635,0,0,0,.359,1.8A1.674,1.674,0,0,0,2.3,3.166,1.644,1.644,0,0,0,1.671,0Z" transform="translate(0.866 0)" fill="#fff"/><path d="M5.023,0A2.954,2.954,0,0,0,2.809.919V.4a.2.2,0,0,0-.2-.2H.2A.2.2,0,0,0,0,.4V8.355A.2.2,0,0,0,.056,8.5.2.2,0,0,0,.2,8.563H2.713a.209.209,0,0,0,.2-.208V4.438c0-1.335.368-1.855,1.3-1.855s1.12.832,1.12,1.924V8.355a.2.2,0,0,0,.056.147.2.2,0,0,0,.145.061H8.05a.209.209,0,0,0,.2-.208V4.022C8.234,2.029,7.849,0,5.023,0Z" transform="translate(5.162 3.778)" fill="#fff"/></g></svg>