<svg id="Layer_1" data-name="Layer 1" xmlns="http://www.w3.org/2000/svg" viewBox="0 0 61.19 46.06"><defs><style>.cls-1{fill:#fff;}.cls-2{fill:#49bbd6;}</style></defs><title>Artboard 32</title><path class="cls-1" d="M13.64,0,5.57,13.5h8v3.19H0L8.26,2.88,0,2.9V0Z"/><path class="cls-1" d="M27.39,16.69h-11V0h11V2.67H19.55v4h7.84v2.6H19.55v4.59h7.84Z"/><path class="cls-1" d="M42.7,16.69H39.13L38,12.89a6.18,6.18,0,0,0-.47-1.14,3.44,3.44,0,0,0-.68-.9,2.83,2.83,0,0,0-.94-.59,3.9,3.9,0,0,0-1.3-.2H33.35v6.63H30.16V0h6.58a5.17,5.17,0,0,1,2,.37,4.81,4.81,0,0,1,1.58,1A4.66,4.66,0,0,1,41.71,4.8a4.53,4.53,0,0,1-.22,1.42,4.92,4.92,0,0,1-.65,1.27,4.78,4.78,0,0,1-1,1,4.12,4.12,0,0,1-1.25.68,3.23,3.23,0,0,1,1.28.85,4,4,0,0,1,.79,1.32c.1.24.19.47.27.71s.17.48.26.74.18.54.29.83.22.63.34,1,.3.85.43,1.17A5,5,0,0,0,42.7,16.69ZM38.48,5A2.5,2.5,0,0,0,38.26,4a2.57,2.57,0,0,0-.59-.83,2.62,2.62,0,0,0-.89-.55,2.85,2.85,0,0,0-1.09-.2H33.35V7.57h2.34a3.55,3.55,0,0,0,1.09-.17,2.55,2.55,0,0,0,.89-.52,2.35,2.35,0,0,0,.59-.8A2.38,2.38,0,0,0,38.48,5Z"/><path class="cls-1" d="M61.19,8.34a7.82,7.82,0,0,1-.69,3.26,8.21,8.21,0,0,1-1.87,2.66A9,9,0,0,1,55.87,16a9,9,0,0,1-6.72,0,9,9,0,0,1-2.77-1.78,8.31,8.31,0,0,1-1.88-2.65,8,8,0,0,1-.68-3.27,8,8,0,0,1,.68-3.27,8.24,8.24,0,0,1,1.88-2.66A9,9,0,0,1,55.87.64a8.85,8.85,0,0,1,2.76,1.78A8.43,8.43,0,0,1,60.5,5.08,7.78,7.78,0,0,1,61.19,8.34ZM58,8.34a5.07,5.07,0,0,0-.43-2.08A5.28,5.28,0,0,0,56.4,4.54a5.71,5.71,0,0,0-1.75-1.17,5.57,5.57,0,0,0-4.29,0A5.76,5.76,0,0,0,48.6,4.54a5.43,5.43,0,0,0-1.18,1.72,5.25,5.25,0,0,0,0,4.16,5.48,5.48,0,0,0,1.18,1.73,5.76,5.76,0,0,0,1.76,1.17,5.57,5.57,0,0,0,4.29,0,5.71,5.71,0,0,0,1.75-1.17,5.32,5.32,0,0,0,1.18-1.73A5.1,5.1,0,0,0,58,8.34Z"/><path class="cls-1" d="M13.5,34.61l-2,1.94L10.08,35a8.76,8.76,0,0,1-.94.7,5.07,5.07,0,0,1-1,.49,6.61,6.61,0,0,1-1.2.28,11.78,11.78,0,0,1-1.55.09,5.66,5.66,0,0,1-3.84-1.46A5,5,0,0,1,.42,33.52a4.62,4.62,0,0,1-.42-2,3.74,3.74,0,0,1,.78-2.33,8.09,8.09,0,0,1,2.29-1.93,9.33,9.33,0,0,1-1.34-1.88,3.46,3.46,0,0,1-.39-1.52A3.62,3.62,0,0,1,1.7,22.3,4.16,4.16,0,0,1,2.7,21a5,5,0,0,1,1.49-.85A5.55,5.55,0,0,1,6,19.86a5.44,5.44,0,0,1,1.87.32,4.91,4.91,0,0,1,1.5.9,4.39,4.39,0,0,1,1,1.35,3.9,3.9,0,0,1,.37,1.68,3,3,0,0,1-.8,2.08A9.66,9.66,0,0,1,7.51,28l2.32,2.59A2.88,2.88,0,0,0,10,30c.05-.21.08-.42.11-.62H13a9,9,0,0,1-.41,1.95,7.86,7.86,0,0,1-.68,1.53ZM8.16,32.87,4.82,29.23A3.45,3.45,0,0,0,3.6,30.3a2.33,2.33,0,0,0-.37,1.27,1.91,1.91,0,0,0,.19.83,2.26,2.26,0,0,0,.5.68,2.46,2.46,0,0,0,.74.47,2.53,2.53,0,0,0,.91.17,5.54,5.54,0,0,0,1.24-.14A3.85,3.85,0,0,0,8.16,32.87Zm-.19-9a1.32,1.32,0,0,0-.55-1.09,2.13,2.13,0,0,0-1.29-.41,2,2,0,0,0-1.31.44,1.43,1.43,0,0,0-.38,1.78,3.36,3.36,0,0,0,.59.77l.73.75a6,6,0,0,0,1.57-.95A1.63,1.63,0,0,0,8,23.87Z"/><path class="cls-2" d="M29.53,28.41a9.44,9.44,0,0,1-.48,2.95A8.39,8.39,0,0,1,27.66,34a7.29,7.29,0,0,1-2.25,1.87,6.26,6.26,0,0,1-3,.71,6.19,6.19,0,0,1-3-.71A7.25,7.25,0,0,1,17.2,34a8.66,8.66,0,0,1-1.41-2.61,9.45,9.45,0,0,1-.49-2.95,10.78,10.78,0,0,1,.46-3.07,9.28,9.28,0,0,1,1.35-2.75,6.81,6.81,0,0,1,2.22-2,6.2,6.2,0,0,1,3.09-.75,6.17,6.17,0,0,1,3.08.76,7.17,7.17,0,0,1,2.22,2,8.82,8.82,0,0,1,1.35,2.75A10.35,10.35,0,0,1,29.53,28.41Zm-3.38,0A10.88,10.88,0,0,0,26,26.6a6.48,6.48,0,0,0-.62-1.83,4.3,4.3,0,0,0-1.16-1.41,2.77,2.77,0,0,0-1.78-.57,2.62,2.62,0,0,0-1.73.58,4.4,4.4,0,0,0-1.16,1.43,6.71,6.71,0,0,0-.65,1.84,9.12,9.12,0,0,0-.2,1.76,7.78,7.78,0,0,0,.21,1.74,6.26,6.26,0,0,0,.66,1.7,4,4,0,0,0,1.16,1.29,3.12,3.12,0,0,0,3.42,0,4.19,4.19,0,0,0,1.16-1.28,5.82,5.82,0,0,0,.65-1.7A7.94,7.94,0,0,0,26.15,28.4Z"/><polygon class="cls-1" points="43.73 19.86 43.73 30.44 36.98 19.86 36.98 25.75 43.93 36.55 46.9 36.55 46.9 19.86 43.73 19.86"/><path class="cls-2" d="M36,36.55H32.79V23.45h-2.3V19.86H36Z"/><path class="cls-1" d="M61.19,36.55h-11V19.86h11v2.67H53.34v4h7.85v2.6H53.34v4.59h7.85Z"/><path class="cls-1" d="M35.32,42.52a.94.94,0,0,0-1.11-.23.9.9,0,0,0-.32.23,1,1,0,0,0-.22.34,1,1,0,0,0-.08.43,1.13,1.13,0,0,0,.3.77,1,1,0,0,0,.32.23,1,1,0,0,0,.78,0,1,1,0,0,0,.33-.23,1.38,1.38,0,0,0,.22-.35,1.16,1.16,0,0,0,.08-.42,1.18,1.18,0,0,0-.08-.43A1.33,1.33,0,0,0,35.32,42.52Z"/><path class="cls-1" d="M44.83,42.39a1,1,0,0,0-1.21,0,1.12,1.12,0,0,0-.37.55h2A1.06,1.06,0,0,0,44.83,42.39Z"/><path class="cls-1" d="M16.6,42.52a.94.94,0,0,0-.33-.23.89.89,0,0,0-.78,0,.82.82,0,0,0-.32.23,1,1,0,0,0-.22.34,1,1,0,0,0-.08.43,1.13,1.13,0,0,0,.3.77.94.94,0,0,0,.32.23,1,1,0,0,0,.78,0,1.09,1.09,0,0,0,.33-.23,1.13,1.13,0,0,0,.21-.35,1,1,0,0,0,.08-.42,1,1,0,0,0-.08-.43A1.08,1.08,0,0,0,16.6,42.52Z"/><path class="cls-1" d="M30.14,42.25l-.17,0h-.15a1.07,1.07,0,0,0-.41.07,1,1,0,0,0-.32.22,1.13,1.13,0,0,0-.21.35,1.33,1.33,0,0,0-.07.45,1.23,1.23,0,0,0,.07.44,1,1,0,0,0,.21.34.9.9,0,0,0,.31.23,1,1,0,0,0,.4.08,1,1,0,0,0,.65-.27v-1.7l-.14-.09Z"/><path class="cls-1" d="M58.78,42.39a1,1,0,0,0-.61-.21.91.91,0,0,0-.59.21,1.06,1.06,0,0,0-.37.55h1.94A1.06,1.06,0,0,0,58.78,42.39Z"/><path class="cls-1" d="M0,39.72v6.34H61.19V39.72Zm4.25,4.56v.79H1.11l1.72-2.78H1.27V41.5H4.32L2.55,44.28Zm4.94-.82c0,.06,0,.12,0,.19H6.32a1.55,1.55,0,0,0,.14.29.73.73,0,0,0,.22.24,1,1,0,0,0,.29.16,1,1,0,0,0,.36.06,1.61,1.61,0,0,0,.48-.08,1.11,1.11,0,0,0,.4-.23l.56.56a2.36,2.36,0,0,1-.72.4,2.61,2.61,0,0,1-.75.11A1.93,1.93,0,0,1,6.55,45a1.91,1.91,0,0,1-.6-.4,2,2,0,0,1-.4-.59,1.8,1.8,0,0,1-.15-.73,1.77,1.77,0,0,1,.15-.73A1.91,1.91,0,0,1,6,42a2.08,2.08,0,0,1,.61-.4,1.81,1.81,0,0,1,.74-.15,2,2,0,0,1,.72.14,1.87,1.87,0,0,1,.61.39,2,2,0,0,1,.42.59,1.83,1.83,0,0,1,.15.75A1.09,1.09,0,0,1,9.19,43.46Zm3.39-.83a1.68,1.68,0,0,0-.29-.25.59.59,0,0,0-.32-.11.46.46,0,0,0-.19,0,.72.72,0,0,0-.19.13.76.76,0,0,0-.15.25,1,1,0,0,0-.06.37v2h-.89V41.51h.89v.38a1.45,1.45,0,0,1,.35-.35.76.76,0,0,1,.44-.13,1,1,0,0,1,.46.13,1.65,1.65,0,0,1,.42.34Zm5,1.4a1.78,1.78,0,0,1-1,1,1.85,1.85,0,0,1-.74.15,1.81,1.81,0,0,1-.74-.15,1.87,1.87,0,0,1-.61-.39,1.91,1.91,0,0,1-.4-.6,1.8,1.8,0,0,1-.15-.73,1.77,1.77,0,0,1,.15-.73,1.94,1.94,0,0,1,.41-.6,1.91,1.91,0,0,1,.6-.4,1.9,1.9,0,0,1,1.48,0,2.27,2.27,0,0,1,.61.39,1.91,1.91,0,0,1,.4.6,1.81,1.81,0,0,1,.15.74A1.85,1.85,0,0,1,17.63,44Zm4.33,1h-.88v-.19a1.59,1.59,0,0,1-.5.22,2.35,2.35,0,0,1-.54.06,1.4,1.4,0,0,1-.47-.08,1,1,0,0,1-.36-.22,1.16,1.16,0,0,1-.24-.34,1.23,1.23,0,0,1-.08-.44,1,1,0,0,1,.13-.53,1.16,1.16,0,0,1,.36-.37,1.66,1.66,0,0,1,.54-.23,2.7,2.7,0,0,1,.65-.07h.51a.6.6,0,0,0-.2-.49.82.82,0,0,0-.59-.19,1.06,1.06,0,0,0-.38.07,1.22,1.22,0,0,0-.39.25L19,42a2.06,2.06,0,0,1,.66-.42,2,2,0,0,1,.77-.15,1.76,1.76,0,0,1,.66.12,1.41,1.41,0,0,1,.46.3,1.24,1.24,0,0,1,.33.53,2.53,2.53,0,0,1,.09.74Zm4.67,0h-.89V42.94a.81.81,0,0,0-.06-.33.6.6,0,0,0-.16-.24.54.54,0,0,0-.22-.15.8.8,0,0,0-.27,0,1.11,1.11,0,0,0-.76.29v2.6h-.88V41.51h.88v.26a1.15,1.15,0,0,1,.2-.15l.24-.11a1.11,1.11,0,0,1,.26-.07,1.15,1.15,0,0,1,.26,0,1.54,1.54,0,0,1,.52.09,1.5,1.5,0,0,1,.44.26,1.33,1.33,0,0,1,.31.47,1.71,1.71,0,0,1,.12.67Zm4.72,0h-.91v-.19a1,1,0,0,1-.38.21,1.44,1.44,0,0,1-.43.06,1.58,1.58,0,0,1-.69-.15,1.65,1.65,0,0,1-.54-.4,1.79,1.79,0,0,1-.35-.6,2,2,0,0,1,0-1.46,1.93,1.93,0,0,1,.38-.59,1.81,1.81,0,0,1,.55-.4,1.56,1.56,0,0,1,.63-.14,1.68,1.68,0,0,1,.45.06,1.4,1.4,0,0,1,.37.17v-1h.9Zm5-1a1.71,1.71,0,0,1-.4.59,1.77,1.77,0,0,1-.61.39,1.9,1.9,0,0,1-1.48,0,1.73,1.73,0,0,1-.6-.39,1.78,1.78,0,0,1-.41-.6,1.8,1.8,0,0,1-.15-.73,1.77,1.77,0,0,1,.15-.73,1.87,1.87,0,0,1,1-1,1.8,1.8,0,0,1,.73-.15,1.85,1.85,0,0,1,.74.15A2.12,2.12,0,0,1,36,42a1.75,1.75,0,0,1,.4.6,1.81,1.81,0,0,1,.15.74A1.85,1.85,0,0,1,36.35,44Zm4.69,1h-.89V42.94a.81.81,0,0,0-.06-.33.6.6,0,0,0-.16-.24.54.54,0,0,0-.22-.15.84.84,0,0,0-.27,0,1.11,1.11,0,0,0-.76.29v2.6H37.8V41.51h.88v.26a1.15,1.15,0,0,1,.2-.15l.24-.11a1.11,1.11,0,0,1,.26-.07l.25,0a1.5,1.5,0,0,1,.52.09,1.43,1.43,0,0,1,.45.26,1.33,1.33,0,0,1,.31.47,1.71,1.71,0,0,1,.12.67Zm5.08-1.61a1.37,1.37,0,0,1,0,.19H43.25a1.55,1.55,0,0,0,.14.29.73.73,0,0,0,.22.24,1,1,0,0,0,.29.16,1,1,0,0,0,.36.06,1.61,1.61,0,0,0,.48-.08,1.25,1.25,0,0,0,.41-.23l.56.56a2.53,2.53,0,0,1-.73.4,2.56,2.56,0,0,1-.75.11,1.93,1.93,0,0,1-.75-.15,1.91,1.91,0,0,1-.6-.4,2,2,0,0,1-.4-.59,1.8,1.8,0,0,1-.15-.73,1.77,1.77,0,0,1,.15-.73,1.91,1.91,0,0,1,.4-.6,2.08,2.08,0,0,1,.61-.4,1.81,1.81,0,0,1,.74-.15,2,2,0,0,1,.72.14,1.87,1.87,0,0,1,.61.39,2,2,0,0,1,.42.59,1.83,1.83,0,0,1,.15.75A1.09,1.09,0,0,1,46.12,43.46Zm1.78,1.61a.48.48,0,0,1-.48-.47.49.49,0,0,1,.48-.48.48.48,0,0,1,.47.48A.47.47,0,0,1,47.9,45.07Zm7.1,0h-.89V42.94a.81.81,0,0,0-.18-.57.58.58,0,0,0-.45-.19,1.27,1.27,0,0,0-.39.06,1.62,1.62,0,0,0-.35.21,1.88,1.88,0,0,1,.06.49v2.13h-.89V42.94a.81.81,0,0,0-.18-.57.58.58,0,0,0-.44-.19.8.8,0,0,0-.36.07,1.41,1.41,0,0,0-.32.22v2.6h-.89V41.51h.89v.26a1.33,1.33,0,0,1,.39-.26,1.27,1.27,0,0,1,.46-.1,1.23,1.23,0,0,1,.52.12,1.28,1.28,0,0,1,.46.34,1.91,1.91,0,0,1,.56-.35,1.81,1.81,0,0,1,.63-.11,1.5,1.5,0,0,1,.52.09,1.1,1.1,0,0,1,.44.26,1.34,1.34,0,0,1,.29.46,1.76,1.76,0,0,1,.12.68Zm5.07-1.61a1.37,1.37,0,0,1,0,.19H57.21a1.11,1.11,0,0,0,.14.29.83.83,0,0,0,.21.24,1.08,1.08,0,0,0,.3.16,1,1,0,0,0,.36.06,1.61,1.61,0,0,0,.48-.08,1.2,1.2,0,0,0,.4-.23l.56.56a2.25,2.25,0,0,1-1.47.51,1.86,1.86,0,0,1-.75-.15,2,2,0,0,1-.61-.4,2,2,0,0,1-.4-.59,1.8,1.8,0,0,1-.15-.73A1.87,1.87,0,0,1,56.84,42a1.91,1.91,0,0,1,.6-.4,1.85,1.85,0,0,1,.74-.15,2,2,0,0,1,.72.14,1.87,1.87,0,0,1,.61.39,1.67,1.67,0,0,1,.42.59,1.83,1.83,0,0,1,.15.75A1.09,1.09,0,0,1,60.07,43.46Z"/><path class="cls-1" d="M20.32,43.55a.77.77,0,0,0-.28.08.58.58,0,0,0-.19.15.32.32,0,0,0-.07.22.39.39,0,0,0,.14.3.57.57,0,0,0,.37.12,1.34,1.34,0,0,0,.4-.06,1.7,1.7,0,0,0,.39-.18v-.66h-.41A2,2,0,0,0,20.32,43.55Z"/><path class="cls-1" d="M7.9,42.39a1,1,0,0,0-1.21,0,1.12,1.12,0,0,0-.37.55H8.27A1.06,1.06,0,0,0,7.9,42.39Z"/></svg>