<svg xmlns="http://www.w3.org/2000/svg" width="19.514" height="19.469" viewBox="0 0 13.514 11.469"><g transform="translate(0 0)"><path d="M13.514,1.354a5.653,5.653,0,0,1-1.589.454A2.875,2.875,0,0,0,13.176.214a5.3,5.3,0,0,1-1.762.694A2.756,2.756,0,0,0,9.355,0,2.713,2.713,0,0,0,7.4.847a2.941,2.941,0,0,0-.808,2.042,2.815,2.815,0,0,0,.066.651A7.717,7.717,0,0,1,.939.523,3.015,3.015,0,0,0,.56,1.98,2.913,2.913,0,0,0,1.8,4.38,2.724,2.724,0,0,1,.544,4.029h0A2.863,2.863,0,0,0,2.759,6.857a2.8,2.8,0,0,1-.725.094A2.163,2.163,0,0,1,1.507,6.9,2.818,2.818,0,0,0,4.118,8.949,5.46,5.46,0,0,1,.667,10.174a5.61,5.61,0,0,1-.667,0,7.594,7.594,0,0,0,4.249,1.294,7.686,7.686,0,0,0,5.593-2.39,8.334,8.334,0,0,0,2.3-5.822V2.889A5.625,5.625,0,0,0,13.514,1.354Z" transform="translate(0 0)" fill="#fff" opacity="0.204"/></g></svg>